<svg width="260" height="72" viewBox="0 0 260 72" fill="none" xmlns="http://www.w3.org/2000/svg">
  <defs>
    <linearGradient id="accentOrange" x1="20" y1="18" x2="114" y2="60" gradientUnits="userSpaceOnUse">
      <stop stop-color="#FF8A1F"/>
      <stop offset="1" stop-color="#F97316"/>
    </linearGradient>
    <linearGradient id="accentBlue" x1="70" y1="8" x2="136" y2="48" gradientUnits="userSpaceOnUse">
      <stop stop-color="#67B4FF"/>
      <stop offset="1" stop-color="#2A78D2"/>
    </linearGradient>
  </defs>
  <rect x="2" y="2" width="256" height="68" rx="20" fill="#121418" stroke="#242A33" stroke-width="2"/>
  <g transform="translate(18 12)">
    <path d="M10 35.5C10 23.1 20.1 13 32.5 13H54V26H32.5C27.3 26 23 30.3 23 35.5V48H10V35.5Z" fill="url(#accentOrange)"/>
    <path d="M58 10L71.5 3L85 10V22L71.5 29L58 22V10Z" fill="url(#accentBlue)"/>
    <path d="M95 17L111 8L127 17V33L111 42L95 33V17Z" fill="#F3F4F6"/>
    <path d="M111 15L99.5 21.5V31L111 37.5L122.5 31V21.5L111 15Z" fill="#111214"/>
    <path d="M36 9H52L62 18V48H36V9Z" fill="#111214"/>
    <path d="M52 9L62 18H52V9Z" fill="#2A78D2"/>
    <rect x="42" y="17" width="14" height="6" rx="2" fill="#F3F4F6"/>
    <rect x="42" y="28" width="14" height="4.5" rx="2" fill="#F3F4F6"/>
    <rect x="42" y="37" width="14" height="4.5" rx="2" fill="#F3F4F6"/>
    <path d="M0 53C15 47 33 44 54 44H127C142 44 155 46 166 50" stroke="url(#accentOrange)" stroke-width="4.5" stroke-linecap="round"/>
    <circle cx="18" cy="52" r="4.5" fill="#F97316"/>
    <circle cx="146" cy="52" r="4.5" fill="#2A78D2"/>
  </g>
</svg>
